<svg height="512pt" viewBox="0 0 512.001 512" width="512pt" xmlns="http://www.w3.org/2000/svg"><path d="m186.277344 421.035156h138.875v41.859375h-138.875zm0 0" fill="#5a5a5a"/><path d="m478.453125 421.035156h-445.472656c-14.078125 0-25.488281-11.414062-25.488281-25.488281v-362.566406c0-14.074219 11.410156-25.484375 25.488281-25.484375h445.472656c14.074219 0 25.484375 11.410156 25.484375 25.484375v362.566406c0 14.074219-11.410156 25.488281-25.484375 25.488281zm0 0" fill="#c9f0ff"/><path d="m503.941406 32.984375v362.5625c0 14.078125-11.410156 25.488281-25.484375 25.488281h-31.132812c14.078125 0 25.484375-11.410156 25.484375-25.488281v-362.5625c0-14.078125-11.40625-25.488281-25.484375-25.488281h31.132812c14.074219 0 25.484375 11.410156 25.484375 25.488281zm0 0" fill="#9ae7fd"/><path d="m503.9375 359.632812h-496.445312v35.914063c0 14.078125 11.410156 25.488281 25.488281 25.488281h445.472656c14.074219 0 25.484375-11.410156 25.484375-25.488281zm0 0" fill="#838383"/><path d="m503.941406 359.628906v35.917969c0 14.078125-11.410156 25.488281-25.484375 25.488281h-31.132812c14.078125 0 25.484375-11.410156 25.484375-25.488281v-35.917969zm0 0" fill="#5a5a5a"/><path d="m504.507812 94.4375h-496.460937v-61.457031c0-14.074219 11.410156-25.484375 25.484375-25.484375h445.492188c14.074218 0 25.484374 11.410156 25.484374 25.484375zm0 0" fill="#acacac"/><path d="m504.511719 32.972656v61.464844h-31.703125v-61.464844c0-14.066406-11.40625-25.476562-25.484375-25.476562h31.699219c14.078124 0 25.488281 11.410156 25.488281 25.476562zm0 0" fill="#9c9c9c"/><path d="m69.757812 50.753906c0 8.003906-6.488281 14.496094-14.496093 14.496094-8.007813 0-14.496094-6.492188-14.496094-14.496094 0-8.007812 6.488281-14.5 14.496094-14.5 8.007812 0 14.496093 6.492188 14.496093 14.5zm0 0" fill="#ff6b81"/><path d="m125.746094 50.753906c0 8.003906-6.492188 14.496094-14.496094 14.496094-8.007812 0-14.5-6.492188-14.5-14.496094 0-8.007812 6.492188-14.5 14.5-14.5 8.003906 0 14.496094 6.492188 14.496094 14.5zm0 0" fill="#ffd86e"/><path d="m181.730469 50.753906c0 8.003906-6.488281 14.496094-14.496094 14.496094-8.003906 0-14.496094-6.492188-14.496094-14.496094 0-8.007812 6.492188-14.5 14.496094-14.5 8.007813 0 14.496094 6.492188 14.496094 14.5zm0 0" fill="#80e0dc"/><path d="m69.753906 50.757812c0 8.003907-6.484375 14.488282-14.488281 14.488282-3.875 0-7.402344-1.519532-10-4.007813 7.84375-.167969 14.15625-6.585937 14.15625-14.476562 0-4.136719-1.726563-7.851563-4.496094-10.492188.113281-.007812.230469-.007812.339844-.007812 8.003906 0 14.488281 6.484375 14.488281 14.496093zm0 0" fill="#ff435f"/><path d="m125.742188 50.757812c0 8.003907-6.484376 14.488282-14.496094 14.488282-3.875 0-7.394532-1.519532-10-4.007813 7.851562-.167969 14.167968-6.585937 14.167968-14.476562 0-4.136719-1.730468-7.851563-4.496093-10.492188.109375-.007812.21875-.007812.328125-.007812 8.011718 0 14.496094 6.484375 14.496094 14.496093zm0 0" fill="#ffb509"/><path d="m181.734375 50.757812c0 8.003907-6.496094 14.488282-14.5 14.488282-3.875 0-7.390625-1.519532-10-4.007813 7.855469-.167969 14.15625-6.585937 14.15625-14.476562 0-4.136719-1.726563-7.851563-4.496094-10.492188.113281-.007812.230469-.007812.339844-.007812 8.003906 0 14.5 6.484375 14.5 14.496093zm0 0" fill="#00a8b0"/><path d="m370.152344 503.957031h-228.875c-2.757813 0-4.996094-2.238281-4.996094-4.996093v-16.1875c0-10.980469 8.902344-19.878907 19.878906-19.878907h199.113282c10.976562 0 19.875 8.898438 19.875 19.878907v16.1875c0 2.757812-2.234376 4.996093-4.996094 4.996093zm0 0" fill="#838383"/><path d="m375.148438 482.769531v16.195313c0 2.757812-2.238282 4.992187-4.996094 4.992187h-17.632813v-21.1875c0-10.972656-8.902343-19.875-19.871093-19.875h22.628906c10.972656 0 19.871094 8.898438 19.871094 19.875zm0 0" fill="#5a5a5a"/><path d="m464.527344 332.113281h-64.519532v-112.21875c0-3.132812 2.539063-5.675781 5.671876-5.675781h53.175781c3.132812 0 5.671875 2.542969 5.671875 5.675781zm0 0" fill="#ffd86e"/><path d="m195.351562 332.113281h-64.523437v-72.257812c0-3.132813 2.539063-5.671875 5.671875-5.671875h53.179688c3.132812 0 5.671874 2.539062 5.671874 5.671875zm0 0" fill="#0396fd"/><path d="m285.074219 332.113281h-64.519531v-139.195312c0-3.132813 2.539062-5.671875 5.671874-5.671875h53.175782c3.132812 0 5.675781 2.539062 5.675781 5.671875v139.195312zm0 0" fill="#80e0dc"/><path d="m374.800781 332.113281h-64.519531v-198.144531c0-3.132812 2.539062-5.671875 5.671875-5.671875h53.175781c3.132813 0 5.675782 2.539063 5.675782 5.671875v198.144531zm0 0" fill="#ff6b81"/><path d="m464.527344 332.113281h-21.238282v-117.894531h15.566407c3.132812 0 5.671875 2.542969 5.671875 5.675781zm0 0" fill="#ffb509"/><path d="m195.351562 332.113281h-21.238281v-77.929687h15.566407c3.132812 0 5.671874 2.539062 5.671874 5.671875zm0 0" fill="#0077f0"/><path d="m285.074219 332.113281h-21.238281v-144.867187h15.566406c3.132812 0 5.671875 2.539062 5.671875 5.671875zm0 0" fill="#00a8b0"/><path d="m374.800781 332.113281h-20.902343v-203.816406h15.230468c3.132813 0 5.675782 2.539063 5.675782 5.671875v198.144531zm0 0" fill="#ff435f"/><path d="m55.261719 28.761719c-12.125 0-21.988281 9.867187-21.988281 21.992187s9.863281 21.988282 21.988281 21.988282 21.992187-9.863282 21.992187-21.988282-9.867187-21.992187-21.992187-21.992187zm0 28.996093c-3.859375 0-7.003907-3.144531-7.003907-7.003906 0-3.863281 3.144532-7.003906 7.003907-7.003906 3.863281 0 7.003906 3.140625 7.003906 7.003906 0 3.859375-3.140625 7.003906-7.003906 7.003906zm0 0"/><path d="m111.25 28.761719c-12.125 0-21.992188 9.867187-21.992188 21.992187s9.867188 21.988282 21.992188 21.988282 21.988281-9.863282 21.988281-21.988282-9.863281-21.992187-21.988281-21.992187zm0 28.996093c-3.863281 0-7.003906-3.144531-7.003906-7.003906 0-3.863281 3.140625-7.003906 7.003906-7.003906 3.859375 0 7.003906 3.140625 7.003906 7.003906 0 3.859375-3.144531 7.003906-7.003906 7.003906zm0 0"/><path d="m167.234375 28.761719c-12.125 0-21.988281 9.867187-21.988281 21.992187s9.863281 21.988282 21.988281 21.988282 21.992187-9.863282 21.992187-21.988282-9.867187-21.992187-21.992187-21.992187zm0 28.996093c-3.859375 0-7.003906-3.144531-7.003906-7.003906 0-3.863281 3.144531-7.003906 7.003906-7.003906 3.863281 0 7.003906 3.140625 7.003906 7.003906 0 3.859375-3.140625 7.003906-7.003906 7.003906zm0 0"/><path d="m479.023438 0h-446.042969c-18.183594 0-32.980469 14.796875-32.980469 32.980469v362.566406c0 16.480469 12.152344 30.175781 27.964844 32.601563 1.636718.25 3.3125.378906 5.015625.378906h145.804687v26.875h-22.625c-15.089844 0-27.371094 12.277344-27.371094 27.371094v16.1875c0 6.886718 5.601563 12.488281 12.488282 12.488281h126.214844c4.140624 0 7.492187-3.355469 7.492187-7.492188 0-4.140625-3.351563-7.496093-7.492187-7.496093h-123.714844v-13.6875c0-6.828126 5.554687-12.386719 12.382812-12.386719h199.113282c6.828124 0 12.382812 5.554687 12.382812 12.386719v13.6875h-53.707031c-4.136719 0-7.492188 3.355468-7.492188 7.496093 0 4.136719 3.355469 7.492188 7.492188 7.492188h56.203125c6.886718 0 12.492187-5.601563 12.492187-12.488281v-16.1875c0-15.09375-12.28125-27.371094-27.371093-27.371094h-22.625v-26.875h145.804687c1.703125 0 3.378906-.128906 5.015625-.378906 15.8125-2.425782 27.964844-16.121094 27.964844-32.601563v-35.914063l.566406-326.652343c0-18.1875-14.792969-32.980469-32.976562-32.980469zm-161.363282 455.402344h-123.890625v-26.875h123.890625zm178.785156-59.855469c0 9.300781-7.09375 16.976563-16.15625 17.902344-.605468.058593-1.214843.089843-1.835937.089843h-445.472656c-.621094 0-1.234375-.03125-1.835938-.089843-9.0625-.925781-16.15625-8.601563-16.15625-17.902344v-28.421875h481.457031zm0-43.410156h-481.457031v-250.207031h481.457031zm0-265.195313h-480.90625v-53.960937c0-9.921875 8.070313-17.992188 17.992188-17.992188h444.921875c9.921875 0 17.992187 8.074219 17.992187 17.992188zm0 0"/><path d="m40.910156 136.789062h19.933594c4.136719 0 7.492188-3.355468 7.492188-7.492187s-3.355469-7.492187-7.492188-7.492187h-19.933594c-4.136718 0-7.492187 3.355468-7.492187 7.492187s3.355469 7.492187 7.492187 7.492187zm0 0"/><path d="m86.160156 136.789062h121.597656c4.140626 0 7.496094-3.355468 7.496094-7.492187s-3.355468-7.492187-7.496094-7.492187h-121.597656c-4.140625 0-7.496094 3.355468-7.496094 7.492187s3.355469 7.492187 7.496094 7.492187zm0 0"/><path d="m199.070312 169.761719c4.136719 0 7.492188-3.355469 7.492188-7.496094 0-4.136719-3.355469-7.492187-7.492188-7.492187h-49.257812c-4.140625 0-7.492188 3.355468-7.492188 7.492187 0 4.140625 3.351563 7.496094 7.492188 7.496094zm0 0"/><path d="m133.273438 162.265625c0-4.136719-3.355469-7.492187-7.492188-7.492187h-16.933594c-4.136718 0-7.492187 3.355468-7.492187 7.492187 0 4.140625 3.355469 7.496094 7.492187 7.496094h16.933594c4.136719 0 7.492188-3.355469 7.492188-7.496094zm0 0"/><path d="m40.910156 169.761719h41.480469c4.140625 0 7.496094-3.355469 7.496094-7.496094 0-4.136719-3.355469-7.492187-7.496094-7.492187h-41.480469c-4.136718 0-7.492187 3.355468-7.492187 7.492187 0 4.140625 3.355469 7.496094 7.492187 7.496094zm0 0"/><path d="m213.0625 324.621094h-10.21875v-64.765625c0-7.257813-5.90625-13.164063-13.167969-13.164063h-53.175781c-7.257812 0-13.167969 5.90625-13.167969 13.164063v72.257812c0 4.140625 3.355469 7.492188 7.496094 7.492188h333.699219c4.136718 0 7.492187-3.351563 7.492187-7.492188v-112.21875c0-7.261719-5.90625-13.167969-13.167969-13.167969h-53.175781c-7.261719 0-13.164062 5.90625-13.164062 13.167969v104.726563h-10.214844v-118.847656c0-4.140626-3.355469-7.496094-7.496094-7.496094-4.136719 0-7.492187 3.355468-7.492187 7.496094v118.847656h-49.535156v-188.828125h49.535156v24.019531c0 4.140625 3.355468 7.492188 7.492187 7.492188 4.140625 0 7.496094-3.351563 7.496094-7.492188v-25.84375c0-7.257812-5.90625-13.164062-13.167969-13.164062h-53.175781c-7.261719 0-13.167969 5.90625-13.167969 13.164062v190.652344h-10.21875v-131.703125c0-7.261719-5.902344-13.167969-13.164062-13.167969h-53.175782c-7.261718 0-13.167968 5.90625-13.167968 13.167969v131.703125zm-25.203125 0h-49.539063v-62.945313h49.539063zm219.640625-102.90625h49.535156v102.90625h-49.535156zm-179.453125-26.976563h49.535156v129.882813h-49.535156zm0 0"/></svg>