<svg height="511pt" viewBox="0 1 511 511.999" width="511pt" xmlns="http://www.w3.org/2000/svg"><path d="m105.265625 206.375c.359375.871094.9375 1.773438 1.613281 2.433594 2.117188 2.054687 5.378906 2.757812 8.15625 1.613281.335938-.144531.664063-.304687.980469-.492187 1.878906-1.128907 3.046875-2.847657 3.484375-4.953126.097656-.476562.148438-.976562.148438-1.464843 0-1.878907-.589844-3.464844-1.8125-4.882813-.660157-.765625-1.480469-1.378906-2.382813-1.828125-.582031-.285156-1.195313-.484375-1.828125-.617187-1.96875-.40625-3.945312.023437-5.609375 1.117187-.816406.535157-1.523437 1.242188-2.066406 2.066407-.269531.40625-.496094.835937-.6875 1.285156-.179688.457031-.328125.925781-.417969 1.402344-.203125.980468-.183594 1.941406 0 2.921874.089844.480469.242188.949219.421875 1.398438zm0 0"/><path d="m131.257812 206.371094c.539063 1.339844 1.566407 2.554687 2.746094 3.363281.789063.519531 1.765625.925781 2.691406 1.117187 1.046876.214844 1.871094.195313 2.921876 0 1.292968-.242187 2.878906-1.125 3.828124-2.042968 2.132813-2.070313 2.738282-5.4375 1.613282-8.15625-.214844-.542969-.535156-1.035156-.851563-1.527344-.207031-.324219-.484375-.628906-.761719-.894531-.683593-.683594-1.546874-1.257813-2.421874-1.617188-.457032-.1875-.925782-.328125-1.40625-.425781-2.4375-.507812-4.996094.289062-6.746094 2.042969-.339844.339843-.660156.726562-.929688 1.136719-.269531.40625-.496094.835937-.6875 1.285156-.328125.78125-.496094 1.628906-.542968 2.476562-.058594 1.085938.132812 2.210938.546874 3.242188zm0 0"/><path d="m157.242188 206.375c.527343 1.277344 1.613281 2.609375 2.75 3.359375.410156.269531.839843.5 1.296874.6875.445313.1875.917969.328125 1.394532.429687.929687.191407 1.988281.171876 2.921875 0 .9375-.175781 1.894531-.59375 2.6875-1.117187.84375-.558594 1.457031-1.171875 2.023437-1.996094.289063-.429687.53125-.886719.730469-1.363281.753906-1.828125.761719-3.894531 0-5.726562-.375-.902344-.925781-1.730469-1.617187-2.417969-1.070313-1.074219-2.347657-1.738281-3.824219-2.046875-1.410157-.292969-2.988281-.121094-4.316407.429687-.460937.191407-.890624.417969-1.296874.6875-.8125.535157-1.535157 1.261719-2.066407 2.0625-1.378906 2.105469-1.644531 4.683594-.683593 7.011719zm0 0"/><path d="m403.179688 221.367188h-295.726563c-4.128906 0-7.476563 3.34375-7.476563 7.476562 0 4.128906 3.347657 7.476562 7.476563 7.476562h295.726563c4.128906 0 7.472656-3.347656 7.472656-7.476562s-3.34375-7.476562-7.472656-7.476562zm0 0"/><path d="m394.628906 249.066406h-278.628906c-8.835938 0-16.023438 7.1875-16.023438 16.027344v68.570312c0 8.835938 7.1875 16.023438 16.023438 16.023438h34.089844c4.132812 0 7.476562-3.34375 7.476562-7.472656 0-4.132813-3.347656-7.476563-7.476562-7.476563h-34.089844c-.589844 0-1.070312-.484375-1.070312-1.074219v-68.570312c0-.59375.480468-1.074219 1.070312-1.074219h278.628906c.589844 0 1.074219.480469 1.074219 1.074219v68.570312c0 .589844-.484375 1.074219-1.074219 1.074219h-199.015625c-4.128906 0-7.476562 3.34375-7.476562 7.476563 0 4.128906 3.347656 7.472656 7.476562 7.472656h199.015625c8.835938 0 16.023438-7.1875 16.023438-16.023438v-68.570312c0-8.839844-7.1875-16.027344-16.023438-16.027344zm0 0"/><path d="m115.753906 378.476562h101.882813c4.128906 0 7.476562-3.347656 7.476562-7.476562s-3.347656-7.476562-7.476562-7.476562h-101.882813c-4.128906 0-7.476562 3.347656-7.476562 7.476562s3.347656 7.476562 7.476562 7.476562zm0 0"/><path d="m287.460938 378.476562c4.128906 0 7.476562-3.347656 7.476562-7.476562s-3.347656-7.476562-7.476562-7.476562h-42.28125c-4.128907 0-7.476563 3.347656-7.476563 7.476562s3.347656 7.476562 7.476563 7.476562zm0 0"/><path d="m394.875 363.523438h-79.601562c-4.128907 0-7.476563 3.347656-7.476563 7.476562s3.347656 7.476562 7.476563 7.476562h79.601562c4.128906 0 7.476562-3.347656 7.476562-7.476562s-3.347656-7.476562-7.476562-7.476562zm0 0"/><path d="m166.917969 394.292969h-51.164063c-4.128906 0-7.476562 3.347656-7.476562 7.476562 0 4.128907 3.347656 7.476563 7.476562 7.476563h51.164063c4.128906 0 7.476562-3.347656 7.476562-7.476563 0-4.128906-3.347656-7.476562-7.476562-7.476562zm0 0"/><path d="m315.273438 394.292969h-112.59375c-4.128907 0-7.476563 3.347656-7.476563 7.476562 0 4.128907 3.347656 7.476563 7.476563 7.476563h112.59375c4.128906 0 7.476562-3.347656 7.476562-7.476563 0-4.128906-3.347656-7.476562-7.476562-7.476562zm0 0"/><path d="m394.875 394.292969h-56.449219c-4.128906 0-7.476562 3.347656-7.476562 7.476562 0 4.128907 3.347656 7.476563 7.476562 7.476563h56.449219c4.128906 0 7.476562-3.347656 7.476562-7.476563 0-4.128906-3.347656-7.476562-7.476562-7.476562zm0 0"/><path d="m502.652344 427.808594h-21.535156v-247.097656c18.890624-19.1875 30.570312-45.496094 30.570312-74.484376 0-58.574218-47.65625-106.226562-106.230469-106.226562-33.992187 0-66.191406 16.464844-86.132812 44.046875-2.417969 3.34375-1.667969 8.019531 1.679687 10.4375 3.34375 2.417969 8.015625 1.671875 10.4375-1.675781 17.140625-23.703125 44.808594-37.855469 74.019532-37.855469 50.328124 0 91.273437 40.945313 91.273437 91.277344 0 50.328125-40.945313 91.273437-91.273437 91.273437-50.332032 0-91.277344-40.945312-91.277344-91.273437 0-4.523438.335937-9.070313.992187-13.515625.609375-4.082032-2.214843-7.886719-6.296875-8.492188-4.082031-.609375-7.886718 2.214844-8.492187 6.300782-.765625 5.167968-1.15625 10.449218-1.15625 15.707031 0 7.871093.867187 15.542969 2.5 22.929687h-242.328125c-16.480469 0-29.890625 13.410156-29.890625 29.894532v268.753906h-21.535157c-4.128906 0-7.476562 3.34375-7.476562 7.476562v44.808594c0 17.59375 14.3125 31.90625 31.90625 31.90625h445.816406c17.59375 0 31.90625-14.3125 31.90625-31.90625v-44.808594c0-4.132812-3.347656-7.476562-7.476562-7.476562zm-60.84375-221.761719c8.707031-3.179687 16.882812-7.472656 24.359375-12.699219v234.460938h-24.359375zm-36.351563 6.40625c7.328125 0 14.484375-.746094 21.398438-2.164063v217.519532h-343.082031v-247.523438c0-.429687.351562-.78125.78125-.78125h244.0625c19.359374 20.289063 46.648437 32.949219 76.839843 32.949219zm-78.460937 230.308594-6.480469 14.835937h-130.402344l-6.484375-14.835937zm-282.53125-283.707031c0-8.238282 6.699218-14.941407 14.9375-14.941407h246.816406c2.765625 7.222657 6.300781 14.066407 10.5 20.4375h-232.164062c-8.675782 0-15.734376 7.058594-15.734376 15.734375v247.523438h-24.355468zm450.710937 321.039062c0 9.347656-7.605469 16.953125-16.953125 16.953125h-445.816406c-9.347656 0-16.953125-7.605469-16.953125-16.953125v-37.332031h151.859375l9.746094 22.304687c1.984375 4.546875 6.476562 7.484375 11.4375 7.484375h133.636718c4.960938 0 9.449219-2.9375 11.4375-7.484375l9.746094-22.304687h151.859375zm0 0"/><path d="m342.085938 109.363281c0 10.417969 2.503906 20.796875 7.238281 30.007813 1.328125 2.578125 3.945312 4.0625 6.65625 4.0625 1.148437 0 2.316406-.269532 3.410156-.832032 3.671875-1.886718 5.121094-6.394531 3.230469-10.066406-3.703125-7.207031-5.582032-15.003906-5.582032-23.171875 0-24.335937 17.222657-44.71875 40.121094-49.617187l-5.050781 3.742187c-3.316406 2.460938-4.007813 7.144531-1.550781 10.460938 1.46875 1.976562 3.726562 3.023437 6.011718 3.023437 1.546876 0 3.109376-.480468 4.449219-1.472656l22.441407-16.652344c1.878906-1.390625 3-3.585937 3.023437-5.925781s-1.050781-4.554687-2.902344-5.988281l-22.441406-17.375c-3.261719-2.527344-7.960937-1.933594-10.488281 1.335937-2.527344 3.265625-1.929688 7.960938 1.335937 10.488281l4.277344 3.3125c-30.75 5.460938-54.179687 32.371094-54.179687 64.667969zm0 0"/><path d="m413.757812 152.710938 5.046876-3.746094c3.316406-2.460938 4.011718-7.144532 1.550781-10.460938-2.460938-3.3125-7.140625-4.007812-10.460938-1.546875l-22.441406 16.648438c-1.878906 1.394531-2.996094 3.589843-3.019531 5.925781-.023438 2.34375 1.046875 4.558594 2.898437 5.992188l22.441407 17.375c1.363281 1.054687 2.972656 1.5625 4.574218 1.5625 2.230469 0 4.441406-.996094 5.914063-2.898438 2.527343-3.265625 1.929687-7.960938-1.335938-10.488281l-4.277343-3.3125c30.75-5.464844 54.179687-32.371094 54.179687-64.671875 0-10.421875-2.503906-20.796875-7.238281-30.007813-1.890625-3.671875-6.402344-5.117187-10.066406-3.230469-3.671876 1.890626-5.121094 6.398438-3.230469 10.070313 3.707031 7.207031 5.585937 15 5.585937 23.167969 0 24.339844-17.226562 44.722656-40.121094 49.621094zm0 0"/></svg>